<svg width="100%" viewBox="0 0 680 680" role="img" xmlns="http://www.w3.org/2000/svg"><title>Emblème du papillon totem</title><desc>Un papillon symétrique stylisé, en lignes dorées sur fond nocturne étoilé.</desc>
<defs><clipPath id="disc"><circle cx="340" cy="340" r="300"/></clipPath></defs>
<circle cx="340" cy="340" r="300" fill="#141026"/>
<g clip-path="url(#disc)">
<circle cx="340" cy="330" r="150" fill="none" stroke="#3a3060" stroke-width="1"/>
<circle cx="470" cy="180" r="70" fill="#1d1838"/><circle cx="448" cy="168" r="70" fill="#141026"/>
<circle cx="180" cy="150" r="2.5" fill="#d9b45a"/><circle cx="230" cy="110" r="1.8" fill="#d9b45a"/><circle cx="150" cy="230" r="2" fill="#d9b45a"/><circle cx="540" cy="300" r="2.2" fill="#d9b45a"/><circle cx="520" cy="420" r="1.6" fill="#d9b45a"/><circle cx="200" cy="500" r="2" fill="#d9b45a"/><circle cx="480" cy="500" r="1.8" fill="#d9b45a"/><circle cx="130" cy="360" r="1.6" fill="#d9b45a"/><circle cx="340" cy="90" r="2" fill="#d9b45a"/>
</g>
<circle cx="340" cy="340" r="300" fill="none" stroke="#d9b45a" stroke-width="2"/>
<circle cx="340" cy="340" r="288" fill="none" stroke="#8a6d2f" stroke-width="0.8"/>
<g fill="none" stroke="#e6c56a" stroke-width="2.4" stroke-linecap="round" stroke-linejoin="round">
<path d="M340 288 L340 452"/>
<path d="M340 288 C332 268 320 258 310 254"/>
<path d="M340 288 C348 268 360 258 370 254"/>
<path d="M340 322 C300 272 246 260 232 300 C222 332 258 356 336 348"/>
<path d="M340 322 C380 272 434 260 448 300 C458 332 422 356 344 348"/>
<path d="M340 362 C304 368 274 396 284 436 C292 468 330 456 340 418"/>
<path d="M340 362 C376 368 406 396 396 436 C388 468 350 456 340 418"/>
<path d="M332 318 L348 318"/><path d="M330 350 L350 350"/><path d="M332 382 L348 382"/>
</g>
<circle cx="308" cy="252" r="5" fill="#e6c56a"/><circle cx="372" cy="252" r="5" fill="#e6c56a"/>
<circle cx="286" cy="306" r="9" fill="none" stroke="#e6c56a" stroke-width="2"/>
<circle cx="394" cy="306" r="9" fill="none" stroke="#e6c56a" stroke-width="2"/>
<circle cx="316" cy="416" r="6" fill="none" stroke="#e6c56a" stroke-width="2"/>
<circle cx="364" cy="416" r="6" fill="none" stroke="#e6c56a" stroke-width="2"/>
<text x="340" y="612" text-anchor="middle" font-family="Georgia, 'Times New Roman', serif" font-size="34" letter-spacing="8" fill="#e6c56a">LE PAPILLON</text>
</svg>
